<?xml version="1.0" encoding="iso-8859-1"?>
<!-- Generator: Adobe Illustrator 19.0.0, SVG Export Plug-In . SVG Version: 6.00 Build 0)  -->
<svg version="1.1" id="Capa_1" xmlns="http://www.w3.org/2000/svg" xmlns:xlink="http://www.w3.org/1999/xlink" x="0px" y="0px"
	 viewBox="0 0 511.999 511.999" style="enable-background:new 0 0 511.999 511.999;" xml:space="preserve">
<polygon style="fill:#E86D24;" points="484.369,169.609 343.031,28.272 338.881,32.423 359.843,79.558 178.172,227.18 
	17.464,421.937 89.418,493.891 285.062,333.582 431.797,151.513 480.707,173.272 "/>
<g>
	<path style="fill:#FB8D4B;" d="M359.843,79.558L17.464,421.937l-4.639-4.639c-16.239-16.239-16.246-42.574,0-58.821L338.881,32.423
		L359.843,79.558z"/>
	<path style="fill:#FB8D4B;" d="M480.707,173.272L154.163,499.815c-16.246,16.246-42.574,16.246-58.821,0l-5.924-5.924
		l342.379-342.379L480.707,173.272z"/>
</g>
<g>
	<path style="fill:#3B484A;" d="M197.363,204.829c-3.017-3.017-3.017-7.91,0-10.927l9.995-9.995c3.017-3.017,7.91-3.017,10.927,0
		c3.017,3.017,3.017,7.91,0,10.927l-9.995,9.995C205.271,207.846,200.38,207.846,197.363,204.829z"/>
	<path style="fill:#3B484A;" d="M307.812,315.279c-3.017-3.017-3.017-7.91,0-10.927l9.995-9.995c3.017-3.017,7.91-3.017,10.927,0
		s3.017,7.91,0,10.927l-9.995,9.995C315.721,318.296,310.83,318.296,307.812,315.279z"/>
	<path style="fill:#3B484A;" d="M245.201,267.44c-8.103-8.103-12.326-19.088-11.583-30.138c0.286-4.258,3.969-7.477,8.227-7.191
		c4.258,0.285,7.477,3.969,7.192,8.227c-0.443,6.6,2.142,13.225,7.092,18.175c4.95,4.95,11.575,7.535,18.174,7.092
		c4.258-0.285,7.941,2.934,8.227,7.192c0.286,4.258-2.934,7.941-7.191,8.227C264.288,279.765,253.304,275.544,245.201,267.44z"/>
</g>
<path style="fill:#FDC464;" d="M496.169,118.531L392.825,15.187c-20.249-20.249-53.079-20.249-73.327,0l-97.605,97.605
	c-9.971,9.971-9.753,26.274,0.656,35.967c9.914,9.234,25.523,8.524,35.102-1.056l67.09-67.09c9.58-9.58,25.188-10.289,35.102-1.056
	c10.408,9.694,10.627,25.996,0.656,35.967l-29.218,29.218c-9.971,9.971-9.753,26.274,0.655,35.967
	c9.914,9.234,25.523,8.524,35.102-1.056l22.95-22.951c9.58-9.58,25.188-10.289,35.102-1.056
	c10.408,9.694,10.627,25.996,0.656,35.967l-39.285,39.285c-9.971,9.971-9.753,26.274,0.656,35.967
	c9.914,9.234,25.523,8.524,35.102-1.056l73.951-73.951C516.418,171.61,516.418,138.78,496.169,118.531z"/>
<path style="fill:#E6B25B;" d="M496.169,118.531l-21.853-21.853c20.249,20.249,20.249,53.079,0,73.327l-73.951,73.951
	c-5.707,5.707-13.553,8.264-21.061,7.448c0.648,5.697,3.251,11.214,7.812,15.461c9.914,9.234,25.523,8.524,35.101-1.056
	l73.951-73.951C516.418,171.61,516.418,138.779,496.169,118.531z"/>
<g>
</g>
<g>
</g>
<g>
</g>
<g>
</g>
<g>
</g>
<g>
</g>
<g>
</g>
<g>
</g>
<g>
</g>
<g>
</g>
<g>
</g>
<g>
</g>
<g>
</g>
<g>
</g>
<g>
</g>
</svg>
